<svg width="256" height="256" viewBox="0 0 256 256" fill="none" xmlns="http://www.w3.org/2000/svg">
<rect width="256" height="256" rx="128" fill="black"/>
<path d="M64.0005 144.632C64.0005 119.947 75.1143 96.9768 88.4109 78.9526H92.5139C84.8313 89.2268 69.9681 110.771 67.6257 137.499C67.6257 137.499 92.5139 117.153 128 137.499C163.487 157.846 188.375 137.499 188.375 137.499C186.033 110.771 171.17 89.2268 163.487 78.9526H167.59C180.887 96.9768 192 119.947 192 144.632C192 177.439 165.873 208.603 128 208.603C90.1278 208.603 64.0005 177.439 64.0005 144.632Z" fill="#98C3FF"/>
<path d="M151.448 53.3333L160.899 66.144H93.78L103.23 53.3333H151.448Z" fill="#98C3FF"/>
</svg>
